HIERARCHY
ROOT Hips
{
	OFFSET 0.000000 35.082581 0.000000
	CHANNELS 6 Xposition Yposition Zposition Xrotation Yrotation Zrotation 
	JOINT Spine
	{
		OFFSET 0.000000 6.876099 0.125700
		CHANNELS 3 Xrotation Yrotation Zrotation
		JOINT Spine1
		{
			OFFSET 0.000000 5.730043 0.104720
			CHANNELS 3 Xrotation Yrotation Zrotation
			JOINT Spine1_split
			{
				OFFSET 0.000000 5.730043 0.104720
				CHANNELS 3 Xrotation Yrotation Zrotation
				JOINT Spine2
				{
					OFFSET 0.000000 5.730043 0.104720
					CHANNELS 3 Xrotation Yrotation Zrotation
					JOINT Neck
					{
						OFFSET 0.000000 10.314075 0.188496
						CHANNELS 3 Xrotation Yrotation Zrotation
						JOINT Head
						{
							OFFSET 0.000000 7.643700 -2.377400
							CHANNELS 3 Xrotation Yrotation Zrotation
							JOINT HeadTop_End
							{
								OFFSET 0.000000 43.788605 -13.619600
								CHANNELS 3 Xrotation Yrotation Zrotation
								End Site
								{
									OFFSET 0.000000 0.000000 0.000000
								}
							}
						}
					}
					JOINT LeftShoulder
					{
						OFFSET 2.196100 4.412489 0.087492
						CHANNELS 3 Xrotation Yrotation Zrotation
						JOINT LeftShoulder_split
						{
							OFFSET 2.196100 4.412489 0.087492
							CHANNELS 3 Xrotation Yrotation Zrotation
							JOINT LeftArm
							{
								OFFSET 8.771219 -2.981674 -0.026999
								CHANNELS 3 Xrotation Yrotation Zrotation
								JOINT LeftForeArm
								{
									OFFSET 8.512804 0.000000 -0.000000
									CHANNELS 3 Xrotation Yrotation Zrotation
									JOINT LeftHand
									{
										OFFSET 18.484802 0.000000 -0.000000
										CHANNELS 3 Xrotation Yrotation Zrotation
										JOINT LeftHandThumb1
										{
											OFFSET 2.499420 -1.158070 2.653252
											CHANNELS 3 Xrotation Yrotation Zrotation
											JOINT LeftHandThumb2
											{
												OFFSET 2.370079 -1.368366 1.368366
												CHANNELS 3 Xrotation Yrotation Zrotation
												JOINT LeftHandThumb3
												{
													OFFSET 2.676727 -1.545410 1.545409
													CHANNELS 3 Xrotation Yrotation Zrotation
													JOINT LeftHandThumb4
													{
														OFFSET 1.692226 -0.977005 0.977007
														CHANNELS 3 Xrotation Yrotation Zrotation
														End Site
														{
															OFFSET 0.000000 0.000000 0.000000
														}
													}
												}
											}
										}
										JOINT LeftHandIndex1
										{
											OFFSET 7.924831 -0.457527 2.345128
											CHANNELS 3 Xrotation Yrotation Zrotation
											JOINT LeftHandIndex2
											{
												OFFSET 3.643303 0.000000 0.000000
												CHANNELS 3 Xrotation Yrotation Zrotation
												JOINT LeftHandIndex3
												{
													OFFSET 3.810799 0.000000 0.000000
													CHANNELS 3 Xrotation Yrotation Zrotation
													JOINT LeftHandIndex4
													{
														OFFSET 2.403702 0.000000 0.000000
														CHANNELS 3 Xrotation Yrotation Zrotation
														End Site
														{
															OFFSET 0.000000 0.000000 0.000000
														}
													}
												}
											}
										}
										JOINT LeftHandMiddle1
										{
											OFFSET 8.563995 0.000000 -0.000000
											CHANNELS 3 Xrotation Yrotation Zrotation
											JOINT LeftHandMiddle2
											{
												OFFSET 3.861618 0.000000 0.000000
												CHANNELS 3 Xrotation Yrotation Zrotation
												JOINT LeftHandMiddle3
												{
													OFFSET 3.701603 0.000000 0.000000
													CHANNELS 3 Xrotation Yrotation Zrotation
													JOINT LeftHandMiddle4
													{
														OFFSET 2.322544 0.000000 0.000000
														CHANNELS 3 Xrotation Yrotation Zrotation
														End Site
														{
															OFFSET 0.000000 0.000000 0.000000
														}
													}
												}
											}
										}
										JOINT LeftHandRing1
										{
											OFFSET 8.426460 -0.424637 -3.286992
											CHANNELS 3 Xrotation Yrotation Zrotation
											JOINT LeftHandRing2
											{
												OFFSET 3.126408 0.000000 0.000000
												CHANNELS 3 Xrotation Yrotation Zrotation
												JOINT LeftHandRing3
												{
													OFFSET 3.085026 0.000000 0.000000
													CHANNELS 3 Xrotation Yrotation Zrotation
													JOINT LeftHandRing4
													{
														OFFSET 1.644005 0.000000 0.000000
														CHANNELS 3 Xrotation Yrotation Zrotation
														End Site
														{
															OFFSET 0.000000 0.000000 0.000000
														}
													}
												}
											}
										}
									}
								}
							}
						}
					}
					JOINT RightShoulder
					{
						OFFSET -2.196100 4.412496 0.070690
						CHANNELS 3 Xrotation Yrotation Zrotation
						JOINT RightShoulder_split
						{
							OFFSET -2.196100 4.412496 0.070690
							CHANNELS 3 Xrotation Yrotation Zrotation
							JOINT RightArm
							{
								OFFSET -8.771282 -2.981682 -0.094208
								CHANNELS 3 Xrotation Yrotation Zrotation
								JOINT RightForeArm
								{
									OFFSET -8.494598 0.000000 0.000000
									CHANNELS 3 Xrotation Yrotation Zrotation
									JOINT RightHand
									{
										OFFSET -18.483803 0.000000 0.000001
										CHANNELS 3 Xrotation Yrotation Zrotation
										JOINT RightHandThumb1
										{
											OFFSET -2.527351 -1.008072 2.575253
											CHANNELS 3 Xrotation Yrotation Zrotation
											JOINT RightHandThumb2
											{
												OFFSET -2.321518 -1.340328 1.340329
												CHANNELS 3 Xrotation Yrotation Zrotation
												JOINT RightHandThumb3
												{
													OFFSET -2.657753 -1.534454 1.534455
													CHANNELS 3 Xrotation Yrotation Zrotation
													JOINT RightHandThumb4
													{
														OFFSET -1.807510 -1.043568 1.043567
														CHANNELS 3 Xrotation Yrotation Zrotation
														End Site
														{
															OFFSET 0.000000 0.000000 0.000000
														}
													}
												}
											}
										}
										JOINT RightHandIndex1
										{
											OFFSET -8.811420 0.015533 2.887987
											CHANNELS 3 Xrotation Yrotation Zrotation
											JOINT RightHandIndex2
											{
												OFFSET -3.537502 0.000000 0.000000
												CHANNELS 3 Xrotation Yrotation Zrotation
												JOINT RightHandIndex3
												{
													OFFSET -3.356201 0.000000 0.000000
													CHANNELS 3 Xrotation Yrotation Zrotation
													JOINT RightHandIndex4
													{
														OFFSET -1.933098 0.000000 0.000000
														CHANNELS 3 Xrotation Yrotation Zrotation
														End Site
														{
															OFFSET 0.000000 0.000000 0.000000
														}
													}
												}
											}
										}
										JOINT RightHandMiddle1
										{
											OFFSET -8.178135 0.000000 0.000000
											CHANNELS 3 Xrotation Yrotation Zrotation
											JOINT RightHandMiddle2
											{
												OFFSET -3.901302 0.000000 0.000000
												CHANNELS 3 Xrotation Yrotation Zrotation
												JOINT RightHandMiddle3
												{
													OFFSET -3.909599 0.000000 0.000000
													CHANNELS 3 Xrotation Yrotation Zrotation
													JOINT RightHandMiddle4
													{
														OFFSET -2.376003 0.000000 0.000000
														CHANNELS 3 Xrotation Yrotation Zrotation
														End Site
														{
															OFFSET 0.000000 0.000000 0.000000
														}
													}
												}
											}
										}
										JOINT RightHandRing1
										{
											OFFSET -7.559013 0.014137 -2.865403
											CHANNELS 3 Xrotation Yrotation Zrotation
											JOINT RightHandRing2
											{
												OFFSET -3.449306 0.000000 0.000000
												CHANNELS 3 Xrotation Yrotation Zrotation
												JOINT RightHandRing3
												{
													OFFSET -3.362106 0.000000 0.000000
													CHANNELS 3 Xrotation Yrotation Zrotation
													JOINT RightHandRing4
													{
														OFFSET -2.076401 0.000000 0.000000
														CHANNELS 3 Xrotation Yrotation Zrotation
														End Site
														{
															OFFSET 0.000000 0.000000 0.000000
														}
													}
												}
											}
										}
									}
								}
							}
						}
					}
				}
			}
		}
	}
	JOINT LeftUpLeg
	{
		OFFSET 10.205400 -3.823500 0.155100
		CHANNELS 3 Xrotation Yrotation Zrotation
		JOINT LeftLeg
		{
			OFFSET 0.708757 -12.982077 0.567790
			CHANNELS 3 Xrotation Yrotation Zrotation
			JOINT LeftFoot
			{
				OFFSET -0.708756 -10.717838 -2.184338
				CHANNELS 3 Xrotation Yrotation Zrotation
				JOINT LeftToeBase
				{
					OFFSET 0.108149 -7.191104 7.560241
					CHANNELS 3 Xrotation Yrotation Zrotation
					JOINT LeftToe_End
					{
						OFFSET 0.070230 0.081724 4.490308
						CHANNELS 3 Xrotation Yrotation Zrotation
						End Site
						{
							OFFSET 0.000000 0.000000 0.000000
						}
					}
				}
			}
		}
	}
	JOINT RightUpLeg
	{
		OFFSET -10.205400 -3.823500 0.005500
		CHANNELS 3 Xrotation Yrotation Zrotation
		JOINT RightLeg
		{
			OFFSET -0.708756 -12.982134 0.610632
			CHANNELS 3 Xrotation Yrotation Zrotation
			JOINT RightFoot
			{
				OFFSET 0.708754 -10.717769 -1.945823
				CHANNELS 3 Xrotation Yrotation Zrotation
				JOINT RightToeBase
				{
					OFFSET -0.108140 -7.191069 7.372968
					CHANNELS 3 Xrotation Yrotation Zrotation
					JOINT RightToe_End
					{
						OFFSET -0.070227 0.081735 4.479403
						CHANNELS 3 Xrotation Yrotation Zrotation
						End Site
						{
							OFFSET 0.000000 0.000000 0.000000
						}
					}
				}
			}
		}
	}
}
MOTION
Frames: 4
Frame Time: 0.016667
-100.935204 33.536499 -5.530428 -0.250207 -1.852420 0.148914 1.359087 0.211966 0.507707 1.526173 0.604860 0.276834 0.000000 0.000000 0.000000 1.528455 0.599783 0.275481 2.397566 -0.807861 -0.311582 -5.722448 -4.753665 1.062652 0.000000 -0.000001 -0.000000 0.680080 -3.439159 -11.860481 0.000000 0.000000 0.000000 7.201839 -16.916693 -65.380244 0.000005 -20.680377 -0.000014 -11.810943 -9.230383 8.456958 -4.796950 3.051753 4.543925 15.168943 25.440085 5.455588 -14.255101 -9.285803 7.920780 -0.000004 0.000001 -0.000007 -1.456317 0.275393 -37.796710 1.499754 3.915411 -41.904570 0.511581 2.396176 -24.100626 0.000002 -0.000000 0.000000 -0.989838 3.521584 -42.884173 1.912732 4.330594 -47.643735 1.341275 3.731673 -39.528320 0.000001 0.000000 -0.000001 -1.278588 4.236152 -52.701309 2.281782 4.639302 -52.360698 0.980793 3.246667 -33.610733 -0.000002 -0.000000 -0.000000 0.475755 8.188388 13.746906 0.000000 0.000000 0.000000 13.305189 7.816387 61.653331 -0.000023 31.239062 0.000001 -9.883369 4.315933 -8.466870 -3.629457 2.305979 -13.175378 14.001460 -30.265425 1.170817 -9.731816 6.667337 -15.553705 0.000005 0.000001 -0.000003 -0.431367 6.502038 20.288749 1.740003 -3.631904 51.185291 0.337714 -1.742753 21.931614 0.000000 0.000001 0.000000 -1.795543 -0.980959 34.164767 1.353517 -3.284355 44.784577 0.568548 -2.231756 28.580665 -0.000001 -0.000001 -0.000000 -1.346456 -2.158757 38.580460 1.794995 -3.675365 52.048169 0.466658 -2.033760 25.843525 0.000000 0.000000 -0.000001 -20.349627 12.858970 15.004321 24.190988 -10.433484 -1.363918 -7.552065 -10.856972 -7.851816 1.635556 -0.000010 0.000001 0.000000 -0.000000 0.000000 -6.440810 -7.838297 -13.008363 23.801497 1.995959 6.102688 -17.373957 -3.641075 5.412224 -0.140951 -0.000001 -0.000001 -0.000000 0.000001 0.000000 
-100.931557 33.529030 -5.524653 -0.221465 -1.848846 0.157285 1.368115 0.215662 0.504583 1.531443 0.606262 0.276090 0.000000 0.000000 0.000000 1.533719 0.600987 0.273807 2.333149 -0.807860 -0.344317 -5.803872 -4.814682 1.134473 0.000000 -0.000000 -0.000000 0.675228 -3.107457 -11.968009 0.000000 0.000000 0.000000 6.895871 -17.408907 -64.965597 -0.000003 -21.235287 -0.000018 -11.562164 -8.704126 7.746404 -5.002445 2.936989 4.426660 15.317507 25.259605 5.072939 -14.331682 -9.984858 7.786030 -0.000002 0.000002 -0.000000 -1.570721 0.351091 -38.821146 1.555506 3.976537 -42.715016 0.531090 2.439244 -24.562682 0.000001 -0.000002 0.000000 -1.061529 3.536020 -43.793667 1.991621 4.401031 -48.680138 1.384982 3.783921 -40.195438 -0.000000 -0.000002 0.000003 -1.391756 4.262045 -53.784424 2.370274 4.705983 -53.446865 1.006426 3.284850 -34.060781 0.000001 0.000001 0.000002 0.473374 8.054810 13.883117 0.000000 0.000000 0.000000 13.604490 8.269893 60.830860 0.000001 32.298991 -0.000003 -9.651779 5.375914 -9.192781 -3.762560 2.514911 -13.410406 14.089918 -30.154633 1.745253 -9.526775 7.265933 -15.719066 0.000000 -0.000000 -0.000000 -0.560412 6.702924 20.635239 1.816301 -3.691877 52.380000 0.349148 -1.770904 22.304867 -0.000004 -0.000001 0.000001 -1.907308 -0.903903 34.752105 1.406578 -3.336872 45.703289 0.577230 -2.247632 28.803215 0.000002 0.000001 -0.000000 -1.442351 -2.098815 39.124625 1.864086 -3.728113 53.118484 0.471429 -2.043588 25.977793 0.000000 -0.000001 -0.000000 -20.398792 12.860561 14.987486 24.271543 -10.436098 -1.382585 -7.615981 -10.856872 -7.754814 1.669336 -0.000001 0.000003 0.000000 0.000000 -0.000000 -6.518602 -7.877473 -13.052323 23.868494 2.064421 6.114925 -17.360312 -3.640489 5.407073 -0.144607 0.000007 -0.000001 0.000000 0.000001 0.000000 
-100.925674 33.522018 -5.520640 -0.174153 -1.860169 0.167325 1.375691 0.228449 0.503668 1.534144 0.618928 0.275135 0.000000 0.000000 0.000000 1.536388 0.613600 0.273539 2.245560 -0.804274 -0.383274 -6.001869 -4.864040 1.193530 0.000000 -0.000000 0.000000 0.674981 -2.709245 -11.957030 0.000000 0.000000 0.000000 6.658596 -17.652571 -64.530043 0.000012 -22.655386 0.000020 -12.066290 -8.706387 7.052871 -5.209613 2.820735 4.307796 15.466330 25.076367 4.687931 -14.415321 -10.690230 7.638540 -0.000002 -0.000003 -0.000001 -1.685217 0.430434 -39.850954 1.612448 4.037183 -43.529810 0.551009 2.482332 -25.026740 0.000001 0.000002 -0.000000 -1.134806 3.553188 -44.707823 2.072230 4.470399 -49.722486 1.429550 3.835925 -40.865934 0.000001 -0.000001 0.000002 -1.507026 4.293141 -54.873132 2.460524 4.771348 -54.539330 1.032473 3.322991 -34.512741 -0.000001 0.000001 0.000002 0.480203 7.824793 13.908616 0.000000 0.000000 0.000000 13.803069 8.765884 60.021264 -0.000016 33.727433 -0.000006 -10.033479 6.711224 -10.260478 -3.896465 2.725677 -13.646569 14.178173 -30.041822 2.323899 -9.321221 7.870329 -15.885162 0.000003 0.000001 -0.000002 -0.692418 6.904169 20.983513 1.894297 -3.750541 53.581550 0.360812 -1.799058 22.679515 0.000002 0.000001 0.000001 -2.021852 -0.828644 35.342209 1.460766 -3.388825 46.627062 0.586003 -2.263498 29.026101 0.000001 -0.000000 -0.000001 -1.540401 -2.040392 39.671269 1.934563 -3.779874 54.194925 0.476222 -2.053388 26.111823 -0.000001 -0.000003 0.000002 -20.476523 12.855222 14.988872 24.352520 -10.455379 -1.409554 -7.650593 -10.826591 -7.717061 1.731792 0.000003 0.000002 -0.000000 0.000001 -0.000000 -6.632515 -7.892014 -13.092201 23.955575 2.124224 6.108364 -17.358258 -3.644244 5.416397 -0.157706 0.000001 -0.000002 0.000000 -0.000002 -0.000000 
-100.917221 33.518425 -5.520440 -0.124646 -1.883893 0.180110 1.383900 0.248218 0.502549 1.538204 0.645311 0.273751 0.000000 0.000000 0.000000 1.540386 0.640241 0.273648 2.156836 -0.796674 -0.417830 -6.316917 -4.882723 1.239700 0.000000 -0.000000 -0.000000 0.681320 -2.265469 -11.771137 0.000000 0.000000 0.000000 6.596418 -17.554471 -64.079961 -0.000001 -25.201800 0.000008 -13.999464 -9.246302 6.718631 -5.417928 2.703385 4.187572 15.615088 24.890891 4.301394 -14.506104 -11.399972 7.478238 -0.000000 -0.000002 -0.000004 -1.799463 0.513327 -40.883788 1.670412 4.097195 -44.347069 0.571320 2.525338 -25.491757 -0.000001 -0.000002 0.000002 -1.209455 3.573136 -45.624550 2.154375 4.538520 -50.768383 1.474827 3.887536 -41.538321 0.000004 -0.000001 0.000003 -1.624002 4.329486 -55.964927 2.552311 4.835201 -55.635572 1.058882 3.360995 -34.965606 -0.000002 -0.000000 0.000003 0.498077 7.530350 13.753887 0.000000 0.000000 0.000000 13.999249 9.313918 59.251987 0.000015 35.758711 -0.000007 -11.394876 7.937359 -11.635045 -4.030886 2.937713 -13.883305 14.266074 -29.927416 2.905316 -9.115663 8.479044 -16.051687 -0.000001 -0.000000 0.000001 -0.827121 7.105278 21.332732 1.973752 -3.807773 54.787150 0.372695 -1.827202 23.054721 0.000004 0.000003 0.000000 -2.138904 -0.755409 35.933735 1.515947 -3.440040 47.553809 0.594841 -2.279333 29.248936 -0.000002 -0.000001 0.000001 -1.640349 -1.983686 40.219070 2.006235 -3.830429 55.274983 0.481016 -2.063139 26.245407 0.000000 0.000001 0.000001 -20.535594 12.854367 14.976438 24.410510 -10.469298 -1.433970 -7.704044 -10.782277 -7.681355 1.732073 -0.000008 0.000002 0.000000 0.000000 0.000000 -6.749496 -7.890899 -13.129504 24.036593 2.174226 6.087868 -17.379538 -3.653038 5.436287 -0.173506 -0.000001 -0.000002 0.000000 -0.000002 0.000000 
